M48
;Layer_Color=6321
;FILE_FORMAT=4:2
METRIC,TZ
;TYPE=PLATED
T1F00S00C1.00
T2F00S00C1.00
T3F00S00C2.40
;TYPE=NON_PLATED
%
T01
X7600Y9100
X7900Y9100
X7000Y9700
X7000Y10000
X7000Y10600
X7000Y10900
X7600Y11500
X7900Y11500
X8500Y11500
X8800Y11500
X9400Y10900
X9400Y10600
X9400Y10000
X9400Y9700
X8800Y9100
X8500Y9100
T02
X7400Y9800
X7700Y9500
X7700Y11100
X7400Y10800
X9000Y10800
X8700Y11100
X9000Y9800
X8700Y9500
T03
X7000Y9100
X7000Y11500
X9400Y11500
X9400Y9100
M30
