G04*
G04 #@! TF.GenerationSoftware,Altium Limited,CircuitMaker,2.3.0 (2.3.0.3)*
G04*
G04 Layer_Color=15132400*
%FSLAX42Y42*%
%MOMM*%
G71*
G04*
G04 #@! TF.SameCoordinates,BD1277A7-5FEE-40B5-B0EC-F627505D423F*
G04*
G04*
G04 #@! TF.FilePolarity,Positive*
G04*
G01*
G75*
%ADD10C,0.25*%
D10*
X9573Y9776D02*
Y9624D01*
X9649D01*
X9675Y9649D01*
Y9751D01*
X9649Y9776D01*
X9573D01*
X9802Y9624D02*
Y9776D01*
X9725Y9700D01*
X9827D01*
X9573Y10076D02*
Y9924D01*
X9649D01*
X9675Y9949D01*
Y10051D01*
X9649Y10076D01*
X9573D01*
X9725Y10051D02*
X9751Y10076D01*
X9802D01*
X9827Y10051D01*
Y10025D01*
X9802Y10000D01*
X9776D01*
X9802D01*
X9827Y9975D01*
Y9949D01*
X9802Y9924D01*
X9751D01*
X9725Y9949D01*
X8673Y8876D02*
Y8724D01*
X8749D01*
X8775Y8749D01*
Y8851D01*
X8749Y8876D01*
X8673D01*
X8927Y8724D02*
X8825D01*
X8927Y8825D01*
Y8851D01*
X8902Y8876D01*
X8851D01*
X8825Y8851D01*
X8398Y8876D02*
Y8724D01*
X8475D01*
X8500Y8749D01*
Y8851D01*
X8475Y8876D01*
X8398D01*
X8551Y8724D02*
X8602D01*
X8576D01*
Y8876D01*
X8551Y8851D01*
X9675Y10651D02*
X9649Y10676D01*
X9598D01*
X9573Y10651D01*
Y10549D01*
X9598Y10524D01*
X9649D01*
X9675Y10549D01*
X9802Y10524D02*
Y10676D01*
X9725Y10600D01*
X9827D01*
X9675Y10951D02*
X9649Y10976D01*
X9598D01*
X9573Y10951D01*
Y10849D01*
X9598Y10824D01*
X9649D01*
X9675Y10849D01*
X9725Y10951D02*
X9751Y10976D01*
X9802D01*
X9827Y10951D01*
Y10925D01*
X9802Y10900D01*
X9776D01*
X9802D01*
X9827Y10875D01*
Y10849D01*
X9802Y10824D01*
X9751D01*
X9725Y10849D01*
X8786Y11847D02*
X8760Y11872D01*
X8710D01*
X8684Y11847D01*
Y11745D01*
X8710Y11720D01*
X8760D01*
X8786Y11745D01*
X8938Y11720D02*
X8837D01*
X8938Y11821D01*
Y11847D01*
X8913Y11872D01*
X8862D01*
X8837Y11847D01*
X8484D02*
X8458Y11872D01*
X8407D01*
X8382Y11847D01*
Y11745D01*
X8407Y11720D01*
X8458D01*
X8484Y11745D01*
X8534Y11720D02*
X8585D01*
X8560D01*
Y11872D01*
X8534Y11847D01*
X6573Y9776D02*
Y9624D01*
X6649D01*
X6675Y9649D01*
Y9675D01*
X6649Y9700D01*
X6573D01*
X6649D01*
X6675Y9725D01*
Y9751D01*
X6649Y9776D01*
X6573D01*
X6802Y9624D02*
Y9776D01*
X6725Y9700D01*
X6827D01*
X6573Y10076D02*
Y9924D01*
X6649D01*
X6675Y9949D01*
Y9975D01*
X6649Y10000D01*
X6573D01*
X6649D01*
X6675Y10025D01*
Y10051D01*
X6649Y10076D01*
X6573D01*
X6725Y10051D02*
X6751Y10076D01*
X6802D01*
X6827Y10051D01*
Y10025D01*
X6802Y10000D01*
X6776D01*
X6802D01*
X6827Y9975D01*
Y9949D01*
X6802Y9924D01*
X6751D01*
X6725Y9949D01*
X7773Y8876D02*
Y8724D01*
X7849D01*
X7875Y8749D01*
Y8775D01*
X7849Y8800D01*
X7773D01*
X7849D01*
X7875Y8825D01*
Y8851D01*
X7849Y8876D01*
X7773D01*
X8027Y8724D02*
X7925D01*
X8027Y8825D01*
Y8851D01*
X8002Y8876D01*
X7951D01*
X7925Y8851D01*
X7498Y8876D02*
Y8724D01*
X7575D01*
X7600Y8749D01*
Y8775D01*
X7575Y8800D01*
X7498D01*
X7575D01*
X7600Y8825D01*
Y8851D01*
X7575Y8876D01*
X7498D01*
X7651Y8724D02*
X7702D01*
X7676D01*
Y8876D01*
X7651Y8851D01*
X6573Y10524D02*
Y10625D01*
X6624Y10676D01*
X6675Y10625D01*
Y10524D01*
Y10600D01*
X6573D01*
X6802Y10524D02*
Y10676D01*
X6725Y10600D01*
X6827D01*
X6573Y10824D02*
Y10925D01*
X6624Y10976D01*
X6675Y10925D01*
Y10824D01*
Y10900D01*
X6573D01*
X6725Y10951D02*
X6751Y10976D01*
X6802D01*
X6827Y10951D01*
Y10925D01*
X6802Y10900D01*
X6776D01*
X6802D01*
X6827Y10875D01*
Y10849D01*
X6802Y10824D01*
X6751D01*
X6725Y10849D01*
X7783Y11720D02*
Y11821D01*
X7833Y11872D01*
X7884Y11821D01*
Y11720D01*
Y11796D01*
X7783D01*
X8036Y11720D02*
X7935D01*
X8036Y11821D01*
Y11847D01*
X8011Y11872D01*
X7960D01*
X7935Y11847D01*
X7483Y11720D02*
Y11821D01*
X7534Y11872D01*
X7584Y11821D01*
Y11720D01*
Y11796D01*
X7483D01*
X7635Y11720D02*
X7686D01*
X7661D01*
Y11872D01*
X7635Y11847D01*
M02*
