M48
;Layer_Color=6321
;FILE_FORMAT=4:2
METRIC,TZ
T4F00S00C5.08
%
G90
G05
T04
G00X8646Y10105
M15
G01X8646Y10495
G01X8395Y10746
G01X8005Y10746
G01X7754Y10495
G01X7754Y10105
G01X8005Y9854
G01X8395Y9854
G01X8646Y10105
M16
G00X9450Y8551
M15
G01X9499Y8566
G01X9543Y8590
G01X9580Y8620
G01X9880Y8920
G01X9912Y8960
G01X9935Y9005
G01X9950Y9053
G01X9954Y9100
G01X9954Y11500
G01X9949Y11550
G01X9934Y11599
G01X9910Y11643
G01X9880Y11680
G01X9580Y11980
G01X9540Y12012
G01X9495Y12035
G01X9447Y12050
G01X9400Y12054
G01X7000Y12054
G01X6950Y12049
G01X6901Y12034
G01X6857Y12010
G01X6820Y11980
G01X6520Y11680
G01X6488Y11640
G01X6465Y11595
G01X6450Y11547
G01X6446Y11500
G01X6446Y9100
G01X6451Y9050
G01X6466Y9001
G01X6490Y8957
G01X6520Y8920
G01X6820Y8620
G01X6860Y8588
G01X6905Y8565
G01X6953Y8550
G01X7000Y8546
G01X9400Y8546
G01X9450Y8551
M16
M17
M30
